# xmcd CD database file
#
# Track frame offsets:
#	150
#	16174
#	29581
#	47238
#	64249
#	78610
#	97236
#	113894
#	130871
#	146551
#	163106
#
# Disc length: 2428 seconds
#
# Revision: 0
# Processed by: cddbd v1.5.1PL2 Copyright (c) Steve Scherf et al.
# Submitted via: CDex 1.51
#
DISCID=9d097a0b
DTITLE=Rodney Atkins - If You're GoingThrough Hell
DYEAR=2006
DGENRE=Country
TTITLE0=These Are My People
TTITLE1=About The South
TTITLE2=Watching You
TTITLE3=Cleaning This Gun (Come On In Boy)
TTITLE4=In The Middle
TTITLE5=A Man On A Tractor
TTITLE6=Wasted Whiskey
TTITLE7=Invisibly Shaken
TTITLE8=Angel's Hands
TTITLE9=If you're Going Through Hell (Before The Devil Even Knows)
TTITLE10=Honesty (Write Me A List)
EXTD=YEAR: 2006
EXTT0=
EXTT1=
EXTT2=
EXTT3=
EXTT4=
EXTT5=
EXTT6=
EXTT7=
EXTT8=
EXTT9=
EXTT10=
PLAYORDER=
